# xmcd CD database file
#
# Track frame offsets:
#	150
#	41135
#	68799
#	97009
#	132203
#	160759
#	180506
#	214348
#	238655
#	259907
#	283844
#	310446
#
# Disc length: 4464 seconds
#
# Revision: 1
# Processed by: cddbd v1.5.2PL0 Copyright (c) Steve Scherf et al.
# Submitted via: CDex 1.51
#
DISCID=b6116e0c
DTITLE=Miles Davis Quintet - Steamin' with the Miles Davis Quintet
DYEAR=1956
DGENRE=Jazz
TTITLE0=Surrey with the fringe on top
TTITLE1=Salt peanuts
TTITLE2=Something I dreamed last night
TTITLE3=Diane
TTITLE4=Well you needn't
TTITLE5=When I fall in love
TTITLE6=Just squeeze me
TTITLE7=There is no greater love
TTITLE8=How am I to know?
TTITLE9=S'posin
TTITLE10=The theme
TTITLE11=Stablemates
EXTD=YEAR: 1956
EXTT0=
EXTT1=
EXTT2=
EXTT3=
EXTT4=
EXTT5=
EXTT6=
EXTT7=
EXTT8=
EXTT9=
EXTT10=
EXTT11=
PLAYORDER=
